<svg width="70" height="70" viewBox="0 0 70 70" fill="none" xmlns="http://www.w3.org/2000/svg">
<path d="M70 34.7606C69.9992 34.8195 69.9825 34.8771 69.9515 34.9272C69.9206 34.9773 69.8767 35.0181 69.8244 35.0452C69.7722 35.0723 69.7135 35.0847 69.6547 35.0811C69.596 35.0775 69.5393 35.058 69.4907 35.0247C64.6809 31.7239 60.0597 28.5409 55.4621 25.3815C50.0959 21.7034 44.7218 18.0317 39.3399 14.3661C36.9303 12.7157 36.9444 12.7157 39.1889 10.9993C42.1739 8.70755 45.1587 6.41587 48.1106 4.08642C48.8557 3.5017 49.464 3.27061 50.4354 3.70915C62.4316 9.13668 69.8019 21.9204 70 34.7606Z" fill="#0F92D1"/>
<path d="M45.6312 1.57309C45.687 1.59197 45.7366 1.62563 45.7748 1.67048C45.8129 1.71533 45.8382 1.76972 45.8479 1.8278C45.8576 1.88588 45.8512 1.94546 45.8297 2.00026C45.8082 2.05505 45.7722 2.10303 45.7256 2.13898C41.095 5.68974 36.653 9.0849 32.2204 12.5131C27.0616 16.4835 21.9092 20.4602 16.763 24.4432C14.4477 26.2257 14.4525 26.2115 13.5094 23.5473C12.255 20.0012 10.996 16.4741 9.69449 12.9233C9.36912 12.0368 9.33612 11.386 10.0529 10.5985C18.9227 0.851626 33.3427 -2.21345 45.6312 1.57309Z" fill="#5250A2"/>
<path d="M6.53873 14.494C6.57398 14.4471 6.62124 14.4107 6.67549 14.3885C6.72974 14.3663 6.78895 14.3592 6.84691 14.3679C6.90488 14.3766 6.9594 14.4008 7.00475 14.4379C7.0501 14.475 7.0846 14.5238 7.10456 14.5789C9.05206 20.0818 10.91 25.3538 12.7631 30.6115C14.948 36.7417 17.1375 42.8718 19.3318 49.0019C20.3126 51.7558 20.3032 51.7464 17.4786 51.8312C13.7062 51.9303 9.93389 52.034 6.19451 52.1802C5.25141 52.2179 4.62427 52.0434 4.09614 51.1192C-2.40181 39.67 -0.859877 25.0142 6.53873 14.494Z" fill="#E21B21"/>
<path d="M6.74732 55.6646C6.71316 55.6167 6.69271 55.5604 6.68803 55.5017C6.68336 55.443 6.69471 55.3842 6.72084 55.3314C6.74698 55.2787 6.78691 55.234 6.83643 55.2021C6.88595 55.1703 6.94314 55.1525 7.00197 55.1506C12.835 54.9997 18.4276 54.863 24.0202 54.7121C30.5276 54.5298 37.0333 54.3411 43.5376 54.1462C46.4565 54.0613 46.4423 54.0708 45.6407 56.7775C44.5703 60.3896 43.5046 63.9969 42.4813 67.6231C42.2267 68.5332 41.8683 69.0754 40.8262 69.2924C27.9293 71.9472 14.4619 65.9538 6.74732 55.6646Z" fill="#FEC30F"/>
<path d="M45.9708 68.1891C45.9144 68.2079 45.854 68.2109 45.796 68.1977C45.738 68.1846 45.6847 68.1558 45.6419 68.1145C45.5992 68.0731 45.5686 68.0209 45.5534 67.9634C45.5382 67.9059 45.5391 67.8453 45.5559 67.7883C47.2158 62.1957 48.8143 56.8342 50.394 51.468C52.2378 45.2247 54.0532 38.9767 55.8922 32.7334C56.7127 29.9324 56.7175 29.9418 59.047 31.5451C62.1451 33.6765 65.2478 35.789 68.3789 37.8968C69.1663 38.4249 69.5719 38.9295 69.454 39.9905C68.0016 53.0759 58.1368 64.03 45.9708 68.1891Z" fill="#45A953"/>
</svg>
